<svg width="379" height="279" viewBox="0 0 379 279" fill="none" xmlns="http://www.w3.org/2000/svg">
<path d="M56.7381 67.6372H0V124.383H56.7381V67.6372Z" fill="#FF3495"/>
<path d="M220.789 222.254H374.926V279H220.789V222.254ZM290.266 92.7416C307.753 92.7416 321.918 106.909 321.918 124.398C321.918 141.887 307.753 156.054 290.266 156.054H220.789V212.799H290.266C327.854 212.799 360.043 189.214 372.793 156.054C376.585 146.217 378.656 135.547 378.656 124.398C378.656 75.6554 339.007 35.9961 290.266 35.9961C241.525 35.9961 201.876 75.6503 201.876 124.398H258.614C258.614 106.909 272.779 92.7416 290.266 92.7416Z" fill="white"/>
<path d="M122.945 222.255H211.335V279H154.597C105.784 279 66.207 239.418 66.207 190.599V0.000244141H122.945V67.6526H189.142V124.398H122.945V222.255Z" fill="white"/>
</svg>
