<svg width="380" height="279" viewBox="0 0 380 279" fill="none" xmlns="http://www.w3.org/2000/svg">
<path d="M57.3943 67.637H0.65625V124.382H57.3943V67.637Z" fill="#FF3495"/>
<path d="M221.445 222.254H375.583V279H221.445V222.254ZM290.923 92.7413C308.41 92.7413 322.575 106.908 322.575 124.398C322.575 141.887 308.41 156.054 290.923 156.054H221.445V212.799H290.923C328.511 212.799 360.7 189.213 373.45 156.054C377.241 146.216 379.313 135.547 379.313 124.398C379.313 75.6552 339.664 35.9958 290.923 35.9958C242.182 35.9958 202.533 75.65 202.533 124.398H259.271C259.271 106.908 273.436 92.7413 290.923 92.7413Z" fill="black"/>
<path d="M123.601 222.255H211.991V279H155.253C106.44 279 66.8633 239.418 66.8633 190.598V0H123.601V67.6523H189.798V124.398H123.601V222.255Z" fill="black"/>
</svg>
