<svg width="450" height="450" viewBox="0 0 450 450" fill="none" xmlns="http://www.w3.org/2000/svg">
<path fill-rule="evenodd" clip-rule="evenodd" d="M225 450C349.264 450 450 349.264 450 225C450 100.736 349.264 0 225 0C100.736 0 0 100.736 0 225C0 349.264 100.736 450 225 450ZM224.704 431.053C338.34 431.053 430.461 338.932 430.461 225.296C430.461 111.66 338.34 19.5395 224.704 19.5395C111.068 19.5395 18.9474 111.66 18.9474 225.296C18.9474 338.932 111.068 431.053 224.704 431.053Z" fill="#FF3495"/>
<path fill-rule="evenodd" clip-rule="evenodd" d="M224.704 431.053C338.34 431.053 430.46 338.932 430.46 225.296C430.46 111.66 338.34 19.5396 224.704 19.5396C111.068 19.5396 18.9473 111.66 18.9473 225.296C18.9473 338.932 111.068 431.053 224.704 431.053ZM229.478 295.844H153.075V211.269H210.295V162.225H153.075V103.755H104.031V268.484C104.031 310.678 138.241 344.888 180.434 344.888H229.478V295.844ZM370.884 295.844H237.65V344.888H370.884V295.844ZM325.065 211.269C325.065 196.154 312.82 183.91 297.705 183.91C282.59 183.91 270.345 196.154 270.345 211.269H221.302C221.302 169.138 255.574 134.866 297.705 134.866C339.836 134.866 374.108 169.142 374.108 211.269C374.108 220.905 372.318 230.127 369.04 238.629C358.019 267.288 330.195 287.672 297.705 287.672H237.65V238.629H297.705C312.82 238.629 325.065 226.385 325.065 211.269Z" fill="white"/>
<path d="M95.8464 162.212H46.8027V211.256H95.8464V162.212Z" fill="#FF3495"/>
</svg>
