<svg width="500" height="500" viewBox="0 0 500 500" fill="none" xmlns="http://www.w3.org/2000/svg">
<rect width="500" height="500" rx="120" fill="black"/>
<path d="M116.757 182.469H64V235.233H116.757V182.469Z" fill="#FF3495"/>
<path d="M269.295 326.237H412.617V379H269.295V326.237ZM333.897 205.812C350.157 205.812 363.328 218.985 363.328 235.247C363.328 251.509 350.157 264.682 333.897 264.682H269.295V317.445H333.897C368.847 317.445 398.778 295.514 410.633 264.682C414.159 255.535 416.085 245.614 416.085 235.247C416.085 189.925 379.218 153.049 333.897 153.049C288.577 153.049 251.71 189.92 251.71 235.247H304.466C304.466 218.985 317.638 205.812 333.897 205.812Z" fill="white"/>
<path d="M178.317 326.237H260.504V379H207.748C162.36 379 125.561 342.196 125.561 296.802V119.579H178.317V182.484H239.869V235.247H178.317V326.237Z" fill="white"/>
</svg>
